<svg version="1.1" id="Layer_1" xmlns="http://www.w3.org/2000/svg" x="0" y="0" viewBox="0 0 400 500" xml:space="preserve"><style>.st0{fill:#101d2c}</style><path class="st0" d="M390.98 39.9c-18.95 1.11-50.16 8.92-88.06-12.26C265.02 6.46 230.47 2 201.49 2s-62.98 8.36-100.88 26.19c-37.9 17.83-91.4 10.03-91.4 10.03-7.25 191.17 38.46 294.83 38.46 294.83C85.56 433.37 202.6 499.14 202.6 499.14c101.43-51.27 154.94-166.08 154.94-166.08 39.01-76.92 33.44-293.16 33.44-293.16zm-43.12 286.94c-1.04 2.22-12.94 27.09-35.57 57.58-21.5 28.97-57.12 68.55-104.76 92.63l-3.81 1.92-3.72-2.09c-1.08-.61-26.85-15.19-57.1-40.98-28.05-23.9-65.22-62.3-83.13-109.55-1.12-2.59-10.8-25.66-19.78-68.19C31.43 217.6 21.92 150.8 25.25 62.83l.34-8.9 8.81 1.28c.71.1 45.38 6.28 76.11-8.18 33.67-15.85 64.77-23.88 92.44-23.88 21.94 0 55.5 2.45 93.43 23.64 26.07 14.57 48.27 12.28 64.48 10.61 3.14-.32 6.1-.63 8.86-.79l8.25-.49.21 8.27c.21 7.88 4.57 193.47-30.32 262.45z"/><path class="st0" d="M183.79 117.37c0-13.77-8.46-24.4-27.35-24.4-5.51 0-9.05.59-11.02 1.97-1.57 1.18-2.16 3.34-2.16 9.64v37.58h10.03c21.64 0 30.5-8.66 30.5-24.79z"/><path class="st0" d="M362.33 73.35c-17.3 1.78-43.37 4.4-73.76-12.58-34.67-19.37-65.47-21.61-85.63-21.61-25.29 0-54.1 7.52-85.62 22.36-26.61 12.52-60.51 11.73-76.37 10.47-4.6 159.17 33.17 247.25 33.55 248.13l.16.39c28.51 75.46 111.1 129.05 129.52 140.26 83.44-44.38 128.78-139.84 129.23-140.82l.12-.24c29.06-57.27 29.23-208.75 28.8-246.36zM184.51 329.39c-3.12 5.4-12.14 18.4-28.57 22.49-3.38.84-6.81 1.25-10.24 1.25-16.34 0-32.63-9.23-42.75-24.95l-1.01-1.57 83.42 1.31-.85 1.47zm103.95-1.49h-91.49v-5.51c17.9-1.77 19.48-2.75 19.48-19.48V224.8c0-16.72-1.97-17.71-17.71-19.28v-1.53L146.45 265c-.19.22-.42.39-.67.51l38.65 58.59-1.67 1.1-38.95-59.05-39.37 59.05-1.66-1.11 40.16-60.24c-.04-.51.11-1.04.47-1.46l48.83-56.96c-.39.23-.77.46-1.17.68-10.23 5.71-20.27 7.67-34.04 7.67h-48.4v-5.51c16.72-1.57 17.71-3.34 17.71-18.89v-78.9c0-16.33-1.77-17.71-17.71-19.08v-5.51h51.55c14.76 0 24 2.56 30.3 6.89 6.89 4.72 11.61 12 11.61 22.04 0 18.49-15.15 26.96-26.17 29.71 18.89 3.15 34.23 12.2 34.23 31.28 0 3.85-.64 7.46-1.79 10.81l70.81-82.61c.22-.26.5-.44.79-.55l.13-.22.11.14a1.997 1.997 0 012.21 2.95l41.86 55.84-1.6 1.2-41.57-55.46-4.5 5.24-32.11 54.83-1.73-1.01 26.52-45.29L202.15 200h49.32v5.51c-15.74 1.57-17.9 2.36-17.9 19.28v80.08c0 12 1.57 14.76 12.79 14.95.2 0 14.36.2 15.54.2 10.03 0 12.99-1.18 17.51-6.1 4.92-5.12 9.05-12.99 12-20.27l6.1 1.57c-1.18 6.11-7.08 26.58-9.05 32.68zm36.21-160.46c-2.79 5.56-11.03 19.05-27.19 24.09-4.16 1.3-8.44 1.92-12.73 1.92-15.48 0-31.12-8.14-41.56-22.41l-1.1-1.51 83.35-3.62-.77 1.53z"/><path class="st0" d="M152.7 149.05h-9.44v39.94c0 14.17 3.34 17.71 17.31 17.71 15.35 0 30.3-8.26 30.3-28.92 0-20.08-14.17-28.73-38.17-28.73z"/></svg>